<svg xmlns="http://www.w3.org/2000/svg" width="500" height="500" viewBox="0 0 500 500" version="1.1">
	<path d="M 191.528 67.250 C 191.302 67.938, 190.185 73.527, 189.044 79.670 C 186.212 94.923, 181.940 108.841, 175.570 123.561 C 167.429 142.377, 158.508 157.581, 133.154 195.851 C 112.438 227.119, 100.456 249.782, 93.687 270.500 C 88.584 286.120, 87.597 292.502, 87.659 309.500 C 87.703 321.534, 88.136 326.082, 89.851 332.500 C 97.040 359.408, 115.611 378.898, 142.642 387.902 C 152.815 391.291, 162.283 392.288, 179.250 391.756 L 195 391.263 195 400.131 L 195 409 204.969 409 L 214.938 409 215.219 396.762 C 215.465 386.033, 215.716 384.483, 217.250 384.189 C 218.890 383.874, 219 386.086, 219 419.427 L 219 455 229.500 455 L 240 455 240 413.071 L 240 371.143 248.431 362.712 C 269.036 342.107, 279.862 317.047, 283.706 281.061 L 284.500 273.623 292.441 291.561 C 296.808 301.428, 301.812 312.650, 303.561 316.500 C 320.177 353.072, 320.242 353.232, 318.868 354.095 C 316.240 355.745, 303.412 357.892, 292.500 358.508 C 277.883 359.334, 269.509 361.330, 262.642 365.625 C 259.539 367.566, 257 369.543, 257 370.018 C 257 372.039, 259.102 371.870, 262.480 369.578 C 274.933 361.127, 286.792 364.553, 296.765 379.481 C 302.115 387.488, 314.495 410.182, 325.962 433 C 337.209 455.382, 336.721 455, 354.071 455 L 365.207 455 362.215 451.592 C 356.369 444.934, 352.455 438.266, 338.900 411.877 C 324.133 383.127, 315.678 369.382, 310.180 365.188 L 306.715 362.545 314.608 361.418 C 318.948 360.798, 322.728 360.409, 323.006 360.554 C 323.285 360.699, 326.658 367.827, 330.501 376.395 C 334.345 384.964, 337.942 392.092, 338.495 392.237 C 339.048 392.382, 347.936 392.368, 358.246 392.207 L 376.991 391.915 375.643 388.707 C 374.440 385.846, 366.102 367.219, 357.809 348.867 L 354.812 342.235 358.448 334.675 C 366.310 318.330, 364.713 297.981, 354.478 284.078 C 347.368 274.419, 338.680 268.687, 325.560 264.998 L 319.620 263.329 312.224 246.914 C 308.157 237.886, 302.213 224.650, 299.015 217.500 C 295.818 210.350, 289.161 195.500, 284.223 184.500 C 279.285 173.500, 269.509 151.675, 262.498 136 C 255.487 120.325, 245.757 98.653, 240.875 87.839 C 235.994 77.026, 232 67.688, 232 67.089 C 232 65.423, 192.074 65.582, 191.528 67.250 M 195.031 84.643 C 190.848 105.842, 179.911 133.837, 164.614 162.500 C 159.046 172.931, 156.734 177.063, 147.264 193.500 C 140.530 205.189, 128.488 229.930, 124.632 240 C 113.349 269.466, 111.884 297.989, 120.558 319.334 C 127.304 335.936, 139.426 348.724, 155.520 356.214 C 166.536 361.341, 185.122 364.414, 192.750 362.370 L 195 361.767 195 297.883 C 195 246.743, 194.745 234, 193.724 234 C 193.022 234, 188.634 234.466, 183.974 235.036 C 172.705 236.414, 163.005 239.125, 149.590 244.646 C 143.491 247.157, 137.938 249.436, 137.250 249.712 C 136.299 250.094, 136 247.793, 136 240.107 L 136 230 200 230 C 235.200 230, 264 229.709, 264 229.353 C 264 228.606, 251.761 200.946, 241.497 178.500 C 239.988 175.200, 237.280 169.125, 235.479 165 C 233.677 160.875, 227.848 147.825, 222.525 136 C 217.202 124.175, 209.454 106.850, 205.307 97.500 C 201.160 88.150, 197.412 80.114, 196.977 79.643 C 196.542 79.172, 195.666 81.422, 195.031 84.643 M 215 296.035 C 215 357.760, 215.010 358.065, 217 357 C 218.956 355.953, 219 354.906, 219 309.465 L 219 263 248 263 C 280.783 263, 278.477 263.690, 275.444 254.788 C 273.955 250.419, 273.552 250.081, 266.194 247.003 C 251.460 240.842, 239.332 237.131, 228.822 235.571 C 223.004 234.707, 217.514 234, 216.622 234 C 215.144 234, 215 239.491, 215 296.035 M 240.028 305.250 L 240.056 343.500 248.478 334.845 C 266.560 316.263, 277.923 292.347, 277.983 272.750 L 278 267 259 267 L 240 267 240.028 305.250 M 327.038 279.278 C 326.999 280.072, 335.107 298.491, 339.462 307.500 C 341.724 312.181, 341.881 312.308, 341.927 309.500 C 341.998 305.170, 339.703 297.271, 336.697 291.500 C 334.165 286.639, 327.113 277.716, 327.038 279.278" stroke="none" fill="#000000" fill-rule="evenodd"/>
</svg>